<svg width="280" height="80" viewBox="0 0 280 80" xmlns="http://www.w3.org/2000/svg">
  <!-- Bleep hero logo: B with speed lines + "leep" wordmark (manifesto red) -->
  <defs>
    <linearGradient id="hero-gradient" x1="0%" y1="0%" x2="100%" y2="100%">
      <stop offset="0%" style="stop-color:#f0584a"/>
      <stop offset="100%" style="stop-color:#cc3120"/>
    </linearGradient>
  </defs>

  <!-- Speed lines (left side of B) -->
  <line x1="4" y1="28" x2="16" y2="28" stroke="#e63a2a" stroke-width="4" stroke-linecap="round"/>
  <line x1="0" y1="40" x2="14" y2="40" stroke="#e63a2a" stroke-width="4" stroke-linecap="round"/>
  <line x1="4" y1="52" x2="16" y2="52" stroke="#e63a2a" stroke-width="4" stroke-linecap="round"/>

  <!-- Stylized B -->
  <path d="M24 8 L24 72 L52 72 C66 72 76 62 76 50 C76 42 72 36 64 34 C70 31 74 26 74 20 C74 10 66 8 56 8 L24 8 Z M36 18 L52 18 C58 18 62 20 62 26 C62 32 58 34 52 34 L36 34 L36 18 Z M36 44 L54 44 C60 44 64 47 64 53 C64 59 60 62 54 62 L36 62 L36 44 Z"
        fill="url(#hero-gradient)"/>

  <!-- "leep" text — currentColor so it adapts to navbar / hero / context -->
  <text x="82" y="58" font-family="'IBM Plex Sans', system-ui, sans-serif" font-size="52" font-weight="600" fill="currentColor">leep</text>
</svg>
